HIERARCHY
ROOT Hips
{
	OFFSET -3.958830 18.904000 13.208200
	CHANNELS 6 Xposition Yposition Zposition Zrotation Yrotation Xrotation 
	JOINT LHipJoint
	{
		OFFSET 0.000000 0.000000 0.000000
		CHANNELS 3 Zrotation Yrotation Xrotation
		JOINT LeftUpLeg
		{
			OFFSET 1.800000 -1.400000 0.085000
			CHANNELS 3 Zrotation Yrotation Xrotation
			JOINT LeftLeg
			{
				OFFSET 2.215000 -6.000000 0.000000
				CHANNELS 3 Zrotation Yrotation Xrotation
				JOINT LeftFoot
				{
					OFFSET 2.500000 -6.900000 0.000000
					CHANNELS 3 Zrotation Yrotation Xrotation
					JOINT LeftToeBase
					{
						OFFSET 0.200000 -0.500000 1.950000
						CHANNELS 3 Zrotation Yrotation Xrotation
						End Site
						{
							OFFSET 0.000000 0.000000 0.000000
						}
					}
				}
			}
		}
	}
	JOINT RHipJoint
	{
		OFFSET 0.000000 0.000000 0.000000
		CHANNELS 3 Zrotation Yrotation Xrotation
		JOINT RightUpLeg
		{
			OFFSET -1.800000 -1.400000 0.085000
			CHANNELS 3 Zrotation Yrotation Xrotation
			JOINT RightLeg
			{
				OFFSET -2.215000 -6.000000 0.000000
				CHANNELS 3 Zrotation Yrotation Xrotation
				JOINT RightFoot
				{
					OFFSET -2.500000 -6.900000 0.000000
					CHANNELS 3 Zrotation Yrotation Xrotation
					JOINT RightToeBase
					{
						OFFSET -0.200000 -0.500000 1.950000
						CHANNELS 3 Zrotation Yrotation Xrotation
						End Site
						{
							OFFSET 0.000000 0.000000 0.000000
						}
					}
				}
			}
		}
	}
	JOINT LowerBack
	{
		OFFSET 0.000000 0.000000 0.000000
		CHANNELS 3 Zrotation Yrotation Xrotation
		JOINT Spine
		{
			OFFSET -0.087000 1.940000 -0.288900
			CHANNELS 3 Zrotation Yrotation Xrotation
			JOINT Spine1
			{
				OFFSET 0.000000 1.950000 0.060000
				CHANNELS 3 Zrotation Yrotation Xrotation
				JOINT Neck
				{
					OFFSET 0.000000 0.000000 0.000000
					CHANNELS 3 Zrotation Yrotation Xrotation
					JOINT Neck1
					{
						OFFSET 0.000000 1.600000 0.340000
						CHANNELS 3 Zrotation Yrotation Xrotation
						JOINT Head
						{
							OFFSET 0.000000 1.667000 -0.240000
							CHANNELS 3 Zrotation Yrotation Xrotation
							End Site
							{
								OFFSET 0.000000 0.000000 0.000000
							}
						}
					}
				}
				JOINT LeftShoulder
				{
					OFFSET 0.000000 0.000000 0.000000
					CHANNELS 3 Zrotation Yrotation Xrotation
					JOINT LeftArm
					{
						OFFSET 2.700000 1.550000 -0.730000
						CHANNELS 3 Zrotation Yrotation Xrotation
						JOINT LeftForeArm
						{
							OFFSET 5.450000 0.000000 0.000000
							CHANNELS 3 Zrotation Yrotation Xrotation
							JOINT LeftHand
							{
								OFFSET 3.450000 0.000000 0.000000
								CHANNELS 3 Zrotation Yrotation Xrotation
								JOINT LeftHandIndex1
								{
									OFFSET 0.750000 0.000000 0.000000
									CHANNELS 3 Zrotation Yrotation Xrotation
									End Site
									{
										OFFSET 0.000000 0.000000 0.000000
									}
								}
							}
						}
					}
				}
				JOINT RightShoulder
				{
					OFFSET 0.000000 0.000000 0.000000
					CHANNELS 3 Zrotation Yrotation Xrotation
					JOINT RightArm
					{
						OFFSET -2.700000 1.550000 -0.730000
						CHANNELS 3 Zrotation Yrotation Xrotation
						JOINT RightForeArm
						{
							OFFSET -5.450000 0.000000 0.000000
							CHANNELS 3 Zrotation Yrotation Xrotation
							JOINT RightHand
							{
								OFFSET -3.450000 0.000000 0.000000
								CHANNELS 3 Zrotation Yrotation Xrotation
								JOINT RightHandIndex1
								{
									OFFSET -0.750000 0.000000 0.000000
									CHANNELS 3 Zrotation Yrotation Xrotation
									End Site
									{
										OFFSET 0.000000 0.000000 0.000000
									}
								}
							}
						}
					}
				}
			}
		}
	}
}
MOTION
Frames: 8
Frame Time: 0.016667
-0.353660 16.258210 -8.190680 -3.321095 0.514589 1.655866 -15.389299 12.401165 4.067369 7.599683 -6.790364 -29.456144 -10.964540 15.325485 46.539219 0.813515 9.486602 1.142522 0.138050 0.144000 -0.028620 18.251429 -9.123946 3.709442 -5.600080 9.097577 -34.334584 8.723175 -13.087050 53.414968 -1.038258 -8.333025 1.423046 0.148760 0.160420 -0.007640 -3.241683 -3.123062 -8.827133 4.760972 -1.944430 23.041566 0.408499 -0.258153 5.068818 -0.878553 -7.519421 -11.151825 -22.840469 10.515897 49.947503 0.505910 1.093850 0.450730 -18.028625 -15.371492 3.261132 -39.259438 -18.857416 1.962052 -37.180803 -22.601424 5.997924 -3.729606 3.156170 0.147940 0.041700 -0.015030 0.113970 20.283324 21.394159 6.710662 38.428349 15.532834 -2.657503 27.212778 26.264282 4.226777 2.476686 -1.342096 -0.109190 0.220880 0.045010 0.007240 
-0.353180 16.185790 -8.205180 -3.327546 0.519967 1.148411 -15.410193 12.321416 4.156048 8.154420 -7.018564 -29.974081 -11.348065 16.178876 48.364934 0.897169 9.945152 0.988905 0.182490 0.196130 -0.000050 18.251314 -9.009893 3.730280 -5.813383 9.368996 -34.598888 8.790219 -13.552361 54.865865 -1.132243 -8.616465 1.329072 0.181420 0.137810 -0.008210 -3.212649 -3.199061 -8.912561 4.610486 -1.999571 24.687346 0.444036 -0.232382 4.623335 -0.971193 -7.687359 -10.968387 -22.910071 10.659803 48.818046 1.092660 1.143300 -1.355530 -18.639839 -15.420208 2.990037 -36.196727 -18.583955 1.514671 -40.363610 -24.041503 7.110746 -3.697086 3.187155 0.172370 0.017880 0.009650 0.121550 21.040931 21.528729 6.631052 35.683507 15.362182 -3.018998 30.018399 28.488262 5.333484 2.454097 -1.373804 -0.104730 0.232470 0.027030 0.001600 
-0.367780 16.079190 -8.216380 -3.215398 0.818670 0.509505 -15.464629 12.160482 4.326444 9.089821 -7.456346 -31.218862 -12.076344 17.498765 50.889106 1.012452 10.626798 0.762471 0.229750 0.247880 0.035400 18.238027 -8.815781 3.755961 -5.880209 9.783614 -35.031666 8.758754 -14.289646 57.285343 -1.270407 -9.095467 1.169904 0.221210 0.111820 -0.000050 -3.118066 -3.309506 -9.051125 3.779180 -1.919257 26.865117 0.777508 -0.186435 3.861123 -1.171810 -7.682370 -10.200079 -22.121756 9.705939 46.914201 1.250010 0.653090 -3.836150 -19.792735 -15.071922 2.227035 -31.856882 -18.726885 1.207046 -44.846555 -25.342391 8.691897 -3.680752 3.233657 0.192360 -0.000490 0.029520 0.119200 22.527841 21.218814 6.203244 32.305476 15.421803 -3.282878 33.533978 31.207907 6.923548 2.426049 -1.422840 -0.099400 0.239750 0.016300 -0.009250 
-0.369430 16.004770 -8.213620 -3.358376 0.332595 -0.481590 -15.491545 12.075433 4.479432 10.617644 -7.457062 -31.247881 -14.030085 19.383583 52.321757 1.195598 11.294585 0.565058 0.250120 0.281030 0.040630 18.222521 -8.740035 3.701591 -5.319237 10.021127 -34.299696 8.189946 -14.311505 58.614025 -1.335835 -9.280884 1.123481 0.235430 0.100660 -0.008130 -3.056070 -3.344304 -9.151867 3.626046 -1.858572 28.716582 1.000074 -0.024339 3.333387 -1.086484 -7.358128 -9.971485 -21.221977 9.352408 47.357367 1.911570 0.287010 -4.190930 -21.674988 -15.588911 2.128652 -28.483909 -18.003042 0.596168 -46.503290 -27.018993 9.916805 -3.649434 3.266801 0.189880 -0.013950 0.039560 0.129160 24.246404 21.640065 5.996478 28.874408 15.709044 -3.333000 35.407099 32.780665 8.056228 2.421549 -1.457548 -0.089010 0.241280 -0.001440 -0.001290 
-0.371910 15.954650 -8.192580 -3.358942 0.087113 -1.242760 -15.514320 12.072225 4.582930 11.572258 -7.468014 -30.912146 -15.331527 20.565876 52.993595 1.296790 11.729086 0.450507 0.194930 0.201830 0.032270 18.197095 -8.754284 3.609818 -4.377930 9.942392 -33.420364 6.458346 -13.655304 59.837678 -1.327707 -9.334125 1.117359 0.198530 0.121190 -0.010350 -2.985107 -3.379031 -9.203933 3.292268 -1.991636 29.304993 1.011628 -0.189209 3.128686 -0.725474 -6.527564 -9.953246 -19.208099 8.965870 48.609042 1.226910 0.870120 -2.664140 -23.264224 -16.290310 2.414049 -26.008855 -16.689226 0.015775 -47.574526 -28.267728 10.803684 -3.672530 3.266366 0.186540 0.013930 0.012000 0.103760 25.202372 21.798856 5.870899 27.603803 15.851802 -3.390495 37.247577 34.551347 9.228251 2.415718 -1.470953 -0.117710 0.236560 0.027270 -0.021230 
-0.366480 15.955390 -8.147670 -3.389819 -0.195166 -1.381297 -15.520188 12.106684 4.579503 12.121870 -7.195834 -30.001818 -16.371938 21.067154 52.282156 1.315468 11.806330 0.432841 0.165840 0.155550 0.033050 18.180953 -8.815135 3.555789 -3.599637 9.810485 -32.812415 5.294554 -12.957166 59.925114 -1.289248 -9.233410 1.148234 0.178550 0.132240 -0.003790 -2.949121 -3.339677 -9.196989 3.239609 -2.093980 28.396949 1.095815 -0.398831 3.472269 -0.406400 -5.527902 -9.742690 -16.652202 8.289168 49.493183 0.788340 1.413690 -1.566560 -23.803101 -16.310432 2.694512 -26.140014 -15.882744 -0.164109 -47.792426 -28.972753 11.147870 -3.696835 3.273924 0.179990 0.037190 -0.006720 0.088420 25.157971 21.212937 5.454808 28.220078 16.505805 -3.038686 37.042710 34.865708 9.365143 2.418698 -1.466759 -0.132560 0.221680 0.041380 -0.036520 
-0.364910 16.005950 -8.082250 -3.165354 -0.048213 -1.016415 -15.483620 12.245492 4.438909 11.459779 -6.873707 -28.465375 -16.328633 20.135942 50.100142 1.246685 11.326658 0.596493 0.123260 0.112350 0.000750 18.178599 -9.019702 3.502674 -3.134438 9.291079 -32.212889 4.402060 -12.116821 58.696428 -1.188007 -8.923999 1.257274 0.146410 0.161860 0.000030 -2.992243 -3.211362 -9.096101 3.583349 -2.305828 26.433223 0.920517 -0.743174 3.957347 -0.160405 -4.711707 -9.705045 -14.658100 7.273062 49.831799 0.476880 1.315350 0.094090 -23.653806 -16.048403 2.981718 -27.878493 -15.291857 -0.171084 -47.982310 -29.093632 11.188064 -3.724322 3.281045 0.142500 0.069340 -0.032590 0.090370 24.565522 20.286935 5.379670 30.417144 16.018123 -3.006405 37.425029 35.287989 9.446181 2.429284 -1.483484 -0.130160 0.207420 0.049360 -0.023050 
-0.363310 16.120040 -8.004030 -2.883430 -0.433265 -0.680439 -15.429903 12.491333 4.236245 10.638804 -6.207187 -26.294102 -16.310322 18.565868 46.102595 1.078889 10.465919 0.871057 0.082730 0.069810 -0.023530 18.164804 -9.361149 3.366379 -2.851718 8.345880 -30.581306 3.714191 -10.947881 55.577564 -1.010255 -8.281333 1.467936 0.118230 0.185820 -0.002790 -3.038608 -3.047106 -8.892595 3.865009 -2.269694 24.039915 0.754468 -0.852746 4.617611 0.038436 -4.006647 -9.658811 -13.095289 6.542243 50.479412 0.166520 1.387260 1.666430 -23.208612 -15.414791 3.136037 -30.302511 -14.912899 -0.005021 -48.225177 -28.639226 10.985407 -3.753662 3.272987 0.114680 0.095330 -0.054880 0.088060 23.753567 19.092383 5.342857 33.174144 15.204458 -2.997464 37.683663 34.838035 9.162079 2.443150 -1.489772 -0.134990 0.200070 0.058010 -0.015970 
